<?xml version="1.0" encoding="utf-8"?>
<!-- Generator: Adobe Illustrator 27.3.1, SVG Export Plug-In . SVG Version: 6.00 Build 0)  -->
<svg version="1.1" id="Layer_1" xmlns="http://www.w3.org/2000/svg" xmlns:xlink="http://www.w3.org/1999/xlink" x="0px" y="0px"
	 viewBox="0 0 511.8 510.5" style="enable-background:new 0 0 511.8 510.5;" xml:space="preserve">
<style type="text/css">
	.st0{fill:#12682C;}
</style>
<g>
	<path class="st0" d="M208.8,186.9c0.1-0.1,0.2-0.2,0.3-0.4c1.1-1.6,2.5-1.7,4.3-1c5.1,2.1,10.4,2.3,15.9,1.2
		c10.8-2.1,19.1-8,26.7-15.7c15.6-16,17.3-37.3,4.1-54.6c-2.4-1.4-4.7-2.8-7.1-4.1c-1.7-0.3-3.3-0.7-5-1c-5,0.1-10,0.2-15,0.3
		c-2.1,0.8-4.2,1.5-6.2,2.5c-11.2,5.1-19.4,13.4-25.1,24.2c-3.9,7.4-7.6,15.9-5.2,23.4c3.1,9.6-0.7,14.6-6.9,19.9
		c-1.9,1.6-3.7,3.4-5.2,5.4c-7.6,9.6-16.5,18.2-24.9,26.9c-12.1,12.5-23.9,25.3-36.2,37.6c-6.4,6.4-6,6.8,0.5,13.2
		c0.9,0.9,2,1.8,2.8,2.9c1.7,2.2,3,2.3,5.1,0.2c4.9-5.2,10.1-10,15-15.1c12.6-13.2,25.2-26.4,37.7-39.7c1.8-1.9,3.3-3.6,5.2-0.2
		c2.8,2.8,6.1,5,7.7,8.8c0.6,0.6,1.3,1.3,1.9,1.9c2.5,2.1,5.1,4.2,7,6.9c1.3,1.4,2.7,2.8,4,4.2c2.3,2,4.9,3.8,6,6.9c1,1,2,2,3.1,3.1
		c2.8,2.3,5.5,4.7,7.7,7.6c0.5,0.5,1.1,1.1,1.6,1.6c1.3,3.4,6.1,3.7,6.6,7.7c2.2,2.1,4.6,4.1,6.7,6.4c1.8,2,3,1.7,4.7-0.1
		c3-3.2,6.3-6.2,9.4-9.3c-1.3-1.9-2.7-3.8-4-5.8c-1.6-1.1-3-2.5-4-4.2c-2-2-3.9-4-5.9-6c-1.4-0.6-2.3-1.7-3-2.9
		c-3.3-2.2-5.3-5.6-7.8-8.6c-0.5-0.5-1-1.1-1.6-1.6c-2.8-2.8-5.6-5.6-8.4-8.4c-4.9-3.8-8.2-9-12.6-13.4c-3.3-3.3-9.1-6.9-8.8-10
		C200.1,193.7,205.5,190.4,208.8,186.9z"/>
	<path class="st0" d="M138.3,183.7c2.6,2.9,5.2,5.8,7.8,8.6c1.5,0.5,2.4,1.6,3.2,2.9c1.8,1.7,2.4,4.9,5.7,4.8
		c5.9-7.6,13.1-14.1,19.8-21c2.8-2.8,2.6-4.7-0.1-7.5c-9.2-9.4-18.1-19-27.2-28.4c-3.1-3.2-6.6-6.1-9.4-9.6
		c-5.3-6.4-11.4-12-17.2-18c-1.3-1.4-2.4-1.6-3.6,0.1c-10.1,14.5-11.4,30.7,0.4,45.8C123.9,169.6,132,175.8,138.3,183.7z"/>
</g>
<path class="st0" d="M370.8,325.7c-3-1.8-4.5-6-9-5.3c-1.7,0-3.3,0-5,0c-5-0.2-10.1,1.2-15-0.7c-0.8-0.8-1.5-1.7-2.3-2.5
	c-2.5-1.9-3.8-3-4.2-4.1c28.1-33.1,45.1-76,45.1-122.9C380.4,85.2,295.2,0,190.2,0S0,85.2,0,190.2s85.2,190.2,190.2,190.2
	c47.5,0,90.9-17.4,124.3-46.2c1.3,0.4,2.4,1.8,3.4,3.3c1,1,2,2,3.1,3.1c2.3,4.9,0.8,10,0.9,15c0,1.7,0,3.3,0,5
	c-0.4,3.5,2.3,5.4,4.1,7.8c1.7,1.1,118.1,117.9,138.6,138.5c1.2,1.2,2.2,2.5,3.3,3.7c0.3,0,0.7,0,1,0c9.9-11.1,20.8-21.2,31.2-31.7
	c3.8-3.9,7.3-8,11.7-11.2c0-0.3,0-0.7,0-1C504.7,459.5,371.8,326.7,370.8,325.7z M190.2,323.7c-73.7,0-133.5-59.8-133.5-133.5
	S116.5,56.7,190.2,56.7s133.5,59.8,133.5,133.5S263.9,323.7,190.2,323.7z"/>
</svg>
